<svg width="28" height="28" viewBox="0 0 28 28" fill="none" xmlns="http://www.w3.org/2000/svg">
<rect width="28" height="28" rx="14" fill="white"/>
<path d="M9.41682 13.649H6.89019C6.79279 13.649 6.69938 13.686 6.63051 13.7518C6.56164 13.8176 6.52295 13.9069 6.52295 13.9999V16.4139C6.52295 16.507 6.56164 16.5962 6.63051 16.662C6.69938 16.7278 6.79279 16.7648 6.89019 16.7648H9.41682C9.51421 16.7648 9.60762 16.7278 9.6765 16.662C9.74537 16.5962 9.78406 16.507 9.78406 16.4139V13.9999C9.78406 13.9069 9.74537 13.8176 9.6765 13.7518C9.60762 13.686 9.51421 13.649 9.41682 13.649ZM9.04957 16.0631H7.25743V14.3508H9.04957V16.0631Z" fill="#5750F1"/>
<path d="M21.7378 20.6069C22.6045 19.2525 23.5483 17.4806 23.5483 16.4701C23.5477 15.5409 23.1616 14.6498 22.4746 13.9921C21.7876 13.3344 20.8558 12.9637 19.8832 12.9613V9.86311C19.8832 9.8596 19.8795 9.85609 19.8795 9.84908C19.8799 9.80802 19.8711 9.76737 19.8538 9.72978V9.72627L18.462 6.48419C18.4006 6.35668 18.3015 6.24916 18.1768 6.17495C18.0521 6.10073 17.9074 6.06308 17.7606 6.06665H17.7202V4.35087C17.7202 4.25782 17.6815 4.16857 17.6126 4.10277C17.5437 4.03697 17.4503 4 17.3529 4H12.3033C12.2059 4 12.1125 4.03697 12.0437 4.10277C11.9748 4.16857 11.9361 4.25782 11.9361 4.35087V6.06665H6.84245C6.6957 6.06353 6.55119 6.10137 6.4266 6.17553C6.30202 6.24969 6.20277 6.35696 6.14102 6.48419L4.74917 9.72627V9.72978C4.73362 9.76787 4.72492 9.80821 4.72347 9.84908C4.72347 9.85609 4.71979 9.8596 4.71979 9.86311V20.5402C4.52843 20.5427 4.34575 20.6169 4.21111 20.7469C4.07647 20.8768 4.00066 21.0521 4 21.2349V22.9613C4.00048 23.1454 4.07725 23.3218 4.21351 23.452C4.34977 23.5822 4.53444 23.6555 4.72714 23.656H17.3933C18.1981 23.889 19.035 24.0049 19.8759 23.9998C21.8773 23.9998 24 23.3753 24 22.2139C24 21.4911 23.148 20.8946 21.7378 20.6069ZM19.8759 13.6631C20.6547 13.6641 21.4014 13.9602 21.9521 14.4864C22.5029 15.0126 22.8127 15.7259 22.8138 16.4701C22.8138 17.3753 21.7562 19.3086 20.8344 20.6771C20.8334 20.6771 20.8325 20.6774 20.8318 20.6781C20.8311 20.6787 20.8307 20.6796 20.8307 20.6806C20.5479 21.0981 20.2798 21.4665 20.0595 21.7332C20.0374 21.7595 20.0095 21.7807 19.9777 21.7952C19.9459 21.8098 19.9111 21.8174 19.8759 21.8174C19.8406 21.8174 19.8058 21.8098 19.774 21.7952C19.7423 21.7807 19.7143 21.7595 19.6923 21.7332C19.4719 21.4665 19.2038 21.0981 18.921 20.6806V20.6771C17.9993 19.3086 16.9379 17.3753 16.9379 16.4701C16.939 15.7259 17.2489 15.0126 17.7996 14.4864C18.3504 13.9602 19.097 13.6641 19.8759 13.6631ZM16.2292 16.0631H15.5534V14.3508H16.9563C16.5568 14.8485 16.3056 15.4401 16.2292 16.0631ZM19.1487 11.2561C19.1478 11.5253 19.0351 11.7833 18.8355 11.9733C18.6359 12.1634 18.3656 12.2701 18.0837 12.2701H18.0617C17.7799 12.2701 17.5095 12.1634 17.3099 11.9733C17.1103 11.7833 16.9977 11.5253 16.9967 11.2561V10.214H19.1487V11.2561ZM17.7606 6.7684C17.7752 6.7684 17.7863 6.77191 17.7863 6.76489L18.9688 9.51224H16.9049L16.0419 6.7684H17.7606ZM14.1102 10.214H16.2622V11.2561C16.2612 11.5247 16.1491 11.7821 15.9503 11.9721C15.7515 12.1621 15.4821 12.2692 15.2009 12.2701H15.1752C14.8934 12.2701 14.623 12.1634 14.4234 11.9733C14.2238 11.7833 14.1111 11.5253 14.1102 11.2561V10.214ZM14.0771 9.51224L13.7907 6.7684H15.2743L16.1373 9.51224H14.0771ZM12.6706 4.70175H16.9857V6.06665H12.6706V4.70175ZM11.5505 6.7684H13.0525L13.339 9.51224H11.264L11.5505 6.7684ZM11.2273 10.214H13.3757V11.2561C13.3756 11.525 13.2637 11.7829 13.0647 11.973C12.8657 12.1632 12.5958 12.27 12.3144 12.2701H12.2887C12.0075 12.2692 11.7381 12.1621 11.5392 11.9721C11.3404 11.7821 11.2283 11.5247 11.2273 11.2561V10.214ZM10.8123 6.7684L10.5259 9.51224H8.46566L9.32868 6.7684H10.8123ZM10.4928 10.214V11.2561C10.4919 11.5253 10.3792 11.7833 10.1796 11.9733C9.97999 12.1634 9.70966 12.2701 9.42784 12.2701H9.40213C9.12095 12.2692 8.85155 12.1621 8.65273 11.9721C8.4539 11.7821 8.34177 11.5247 8.3408 11.2561V10.214H10.4928ZM6.80206 6.77893C6.81395 6.77128 6.82814 6.76758 6.84245 6.7684H8.56115L7.7018 9.51224H5.63423L6.80206 6.77893ZM5.45428 10.214H7.60632V11.2561C7.60535 11.5247 7.49322 11.7821 7.29439 11.9721C7.09556 12.1621 6.82617 12.2692 6.54499 12.2701H6.51928C6.23746 12.2701 5.96713 12.1634 5.76751 11.9733C5.56788 11.7833 5.45525 11.5253 5.45428 11.2561V10.214ZM5.45428 12.6315C5.76198 12.851 6.1353 12.9703 6.51928 12.9719H6.54499C6.82261 12.9709 7.09619 12.9082 7.34412 12.7889C7.59205 12.6695 7.80753 12.4967 7.97356 12.2841C8.13958 12.4967 8.35507 12.6695 8.603 12.7889C8.85093 12.9082 9.12451 12.9709 9.40213 12.9719H9.42784C9.70596 12.9708 9.98003 12.9081 10.2285 12.7888C10.477 12.6695 10.6932 12.4967 10.8601 12.2841C11.0261 12.4967 11.2416 12.6695 11.4895 12.7889C11.7375 12.9082 12.011 12.9709 12.2887 12.9719H12.3144C12.5921 12.9713 12.8658 12.9088 13.1138 12.7894C13.3618 12.67 13.5772 12.497 13.7429 12.2841C13.9098 12.4967 14.126 12.6695 14.3745 12.7888C14.623 12.9081 14.8971 12.9708 15.1752 12.9719H15.2009C15.4785 12.9709 15.7521 12.9082 16 12.7889C16.2479 12.6695 16.4634 12.4967 16.6295 12.2841C16.7963 12.4967 17.0125 12.6695 17.261 12.7888C17.5095 12.9081 17.7836 12.9708 18.0617 12.9719H18.0837C18.4678 12.9708 18.8413 12.8515 19.1487 12.6315V13.028C18.624 13.1326 18.1291 13.3444 17.6981 13.649H15.1862C15.0888 13.649 14.9954 13.686 14.9265 13.7518C14.8576 13.8176 14.8189 13.9069 14.8189 13.9999V16.4139C14.8189 16.507 14.8576 16.5962 14.9265 16.662C14.9954 16.7278 15.0888 16.7648 15.1862 16.7648H16.2255C16.3724 17.7823 17.195 19.3192 17.9699 20.5402H14.1102V17.435C14.1102 16.9767 13.9196 16.5371 13.5804 16.2131C13.2412 15.889 12.7812 15.7069 12.3015 15.7069C11.8218 15.7069 11.3618 15.889 11.0226 16.2131C10.6834 16.5371 10.4928 16.9767 10.4928 17.435V20.5402H5.45428V12.6315ZM13.3757 17.435V20.5402H11.2273V17.435C11.2273 17.1628 11.3405 16.9017 11.5419 16.7093C11.7434 16.5168 12.0166 16.4087 12.3015 16.4087C12.5864 16.4087 12.8596 16.5168 13.0611 16.7093C13.2625 16.9017 13.3757 17.1628 13.3757 17.435ZM15.7517 22.2139C15.7591 22.4933 15.8803 22.759 16.0896 22.9542L4.73448 22.9613L4.72714 21.242H16.3614C16.1855 21.3453 16.0383 21.4876 15.9322 21.6567C15.8261 21.8259 15.7642 22.017 15.7517 22.2139ZM19.8759 23.2981C17.8083 23.2981 16.4862 22.656 16.4862 22.2139C16.4862 21.9332 17.0995 21.47 18.4363 21.2455C18.7007 21.6314 18.9431 21.9542 19.1194 22.1683C19.2095 22.2776 19.3244 22.366 19.4554 22.4268C19.5864 22.4875 19.7302 22.5191 19.8759 22.5191C20.0215 22.5191 20.1653 22.4875 20.2963 22.4268C20.4274 22.366 20.5423 22.2776 20.6324 22.1683C20.8087 21.9542 21.051 21.6314 21.3155 21.2455C22.6522 21.47 23.2655 21.9332 23.2655 22.2139C23.2655 22.656 21.9471 23.2981 19.8759 23.2981Z" fill="#5750F1"/>
<path d="M19.8759 14.6841C19.5061 14.6841 19.1447 14.7889 18.8373 14.9851C18.5299 15.1814 18.2904 15.4603 18.1489 15.7866C18.0074 16.113 17.9704 16.4721 18.0425 16.8185C18.1146 17.1649 18.2927 17.4832 18.5541 17.7329C18.8155 17.9827 19.1486 18.1528 19.5112 18.2217C19.8738 18.2906 20.2496 18.2553 20.5912 18.1201C20.9328 17.9849 21.2247 17.756 21.4301 17.4623C21.6355 17.1686 21.7451 16.8233 21.7451 16.4701C21.745 15.9964 21.548 15.5422 21.1975 15.2073C20.847 14.8724 20.3716 14.6842 19.8759 14.6841ZM19.8759 17.5543C19.6514 17.5543 19.432 17.4907 19.2454 17.3716C19.0588 17.2524 18.9133 17.0831 18.8275 16.885C18.7416 16.6869 18.7191 16.4689 18.7629 16.2586C18.8067 16.0482 18.9147 15.8551 19.0734 15.7034C19.2321 15.5518 19.4343 15.4485 19.6545 15.4067C19.8746 15.3649 20.1028 15.3863 20.3101 15.4684C20.5175 15.5505 20.6947 15.6894 20.8194 15.8677C20.9441 16.046 21.0106 16.2556 21.0106 16.4701C21.0097 16.7573 20.8898 17.0326 20.6772 17.2357C20.4646 17.4388 20.1765 17.5534 19.8759 17.5543Z" fill="#5750F1"/>
</svg>
