<svg width="146" height="30" viewBox="0 0 146 30" fill="none" xmlns="http://www.w3.org/2000/svg">
<path d="M8.12522 14.4736H4.33529C4.18919 14.4736 4.04907 14.529 3.94577 14.6277C3.84246 14.7264 3.78442 14.8603 3.78442 14.9999V18.6209C3.78442 18.7605 3.84246 18.8944 3.94577 18.9931C4.04907 19.0918 4.18919 19.1472 4.33529 19.1472H8.12522C8.27132 19.1472 8.41144 19.0918 8.51474 18.9931C8.61805 18.8944 8.67609 18.7605 8.67609 18.6209V14.9999C8.67609 14.8603 8.61805 14.7264 8.51474 14.6277C8.41144 14.529 8.27132 14.4736 8.12522 14.4736ZM7.57436 18.0946H4.88615V15.5262H7.57436V18.0946Z" fill="#5750F1"/>
<path d="M26.6067 24.9103C27.9067 22.8788 29.3224 20.2209 29.3224 18.7051C29.3216 17.3113 28.7424 15.9747 27.7119 14.9882C26.6814 14.0016 25.2836 13.4456 23.8248 13.442V8.79467C23.8248 8.7894 23.8193 8.78414 23.8193 8.77361C23.8198 8.71203 23.8067 8.65105 23.7808 8.59467V8.5894L21.693 3.72629C21.6009 3.53502 21.4522 3.37374 21.2652 3.26242C21.0782 3.1511 20.8611 3.09462 20.6408 3.09998H20.5802V0.526312C20.5802 0.386725 20.5222 0.252856 20.4189 0.154153C20.3156 0.0554505 20.1755 0 20.0294 0H12.455C12.3089 0 12.1688 0.0554505 12.0655 0.154153C11.9622 0.252856 11.9041 0.386725 11.9041 0.526312V3.09998H4.26368C4.04355 3.0953 3.82678 3.15206 3.6399 3.2633C3.45302 3.37454 3.30416 3.53544 3.21153 3.72629L1.12376 8.5894V8.59467C1.10042 8.65181 1.08739 8.71231 1.0852 8.77361C1.0852 8.78414 1.07969 8.7894 1.07969 8.79467V24.8103C0.792647 24.8141 0.518623 24.9254 0.316665 25.1203C0.114708 25.3152 0.000984843 25.5781 0 25.8524V28.4419C0.000727174 28.718 0.115874 28.9827 0.320264 29.178C0.524655 29.3733 0.801658 29.4833 1.09071 29.484H20.09C21.2971 29.8335 22.5525 30.0074 23.8138 29.9998C26.816 29.9998 30 29.0629 30 27.3208C30 26.2366 28.722 25.3419 26.6067 24.9103ZM23.8138 14.4946C24.9821 14.4962 26.1021 14.9402 26.9282 15.7295C27.7543 16.5188 28.2191 17.5889 28.2207 18.7051C28.2207 20.063 26.6342 22.963 25.2516 25.0156C25.2501 25.0156 25.2487 25.0161 25.2477 25.0171C25.2466 25.0181 25.2461 25.0195 25.2461 25.0209C24.8219 25.6472 24.4198 26.1998 24.0892 26.5998C24.0562 26.6392 24.0142 26.671 23.9666 26.6928C23.9189 26.7147 23.8667 26.726 23.8138 26.726C23.7609 26.726 23.7087 26.7147 23.6611 26.6928C23.6134 26.671 23.5715 26.6392 23.5384 26.5998C23.2079 26.1998 22.8057 25.6472 22.3816 25.0209V25.0156C20.9989 22.963 19.4069 20.063 19.4069 18.7051C19.4085 17.5889 19.8733 16.5188 20.6994 15.7295C21.5255 14.9402 22.6455 14.4962 23.8138 14.4946ZM18.3437 18.0946H17.3302V15.5262H19.4344C18.8352 16.2727 18.4583 17.1602 18.3437 18.0946ZM22.7231 10.8841C22.7216 11.288 22.5527 11.6749 22.2533 11.96C21.9538 12.2451 21.5483 12.4052 21.1256 12.4052H21.0925C20.6698 12.4052 20.2643 12.2451 19.9649 11.96C19.6655 11.6749 19.4965 11.288 19.495 10.8841V9.32098H22.7231V10.8841ZM20.6408 4.1526C20.6629 4.1526 20.6794 4.15786 20.6794 4.14734L22.4532 8.26835H19.3573L18.0628 4.1526H20.6408ZM15.1653 9.32098H18.3933V10.8841C18.3919 11.2871 18.2237 11.6732 17.9254 11.9581C17.6272 12.2431 17.2231 12.4038 16.8013 12.4052H16.7628C16.34 12.4052 15.9345 12.2451 15.6351 11.96C15.3357 11.6749 15.1667 11.288 15.1653 10.8841V9.32098ZM15.1157 8.26835L14.686 4.1526H16.9115L18.206 8.26835H15.1157ZM13.0059 1.05262H19.4785V3.09998H13.0059V1.05262ZM11.3257 4.1526H13.5788L14.0084 8.26835H10.8961L11.3257 4.1526ZM10.841 9.32098H14.0635V10.8841C14.0634 11.2875 13.8956 11.6743 13.5971 11.9595C13.2986 12.2447 12.8937 12.405 12.4715 12.4052H12.433C12.0112 12.4038 11.6071 12.2431 11.3089 11.9581C11.0106 11.6732 10.8424 11.2871 10.841 10.8841V9.32098ZM10.2185 4.1526L9.78884 8.26835H6.69849L7.99302 4.1526H10.2185ZM9.73926 9.32098V10.8841C9.7378 11.288 9.56885 11.6749 9.26942 11.96C8.96999 12.2451 8.56449 12.4052 8.14175 12.4052H8.10319C7.68142 12.4038 7.27733 12.2431 6.97909 11.9581C6.68085 11.6732 6.51265 11.2871 6.5112 10.8841V9.32098H9.73926ZM4.20308 4.16839C4.22092 4.15692 4.24222 4.15137 4.26368 4.1526H6.84172L5.5527 8.26835H2.45134L4.20308 4.16839ZM2.18142 9.32098H5.40947V10.8841C5.40802 11.2871 5.23983 11.6732 4.94159 11.9581C4.64334 12.2431 4.23926 12.4038 3.81748 12.4052H3.77892C3.35619 12.4052 2.95069 12.2451 2.65126 11.96C2.35183 11.6749 2.18288 11.288 2.18142 10.8841V9.32098ZM2.18142 12.9473C2.64298 13.2765 3.20294 13.4554 3.77892 13.4578H3.81748C4.23391 13.4563 4.64428 13.3624 5.01617 13.1833C5.38807 13.0043 5.7113 12.7451 5.96034 12.4262C6.20938 12.7451 6.53261 13.0043 6.9045 13.1833C7.27639 13.3624 7.68676 13.4563 8.10319 13.4578H8.14175C8.55893 13.4562 8.97004 13.3622 9.3428 13.1832C9.71555 13.0042 10.0398 12.7451 10.2901 12.4262C10.5392 12.7451 10.8624 13.0043 11.2343 13.1833C11.6062 13.3624 12.0165 13.4563 12.433 13.4578H12.4715C12.8881 13.4569 13.2987 13.3632 13.6706 13.1841C14.0426 13.005 14.3658 12.7455 14.6144 12.4262C14.8647 12.7451 15.189 13.0042 15.5617 13.1832C15.9345 13.3622 16.3456 13.4562 16.7628 13.4578H16.8013C17.2178 13.4563 17.6281 13.3624 18 13.1833C18.3719 13.0043 18.6951 12.7451 18.9442 12.4262C19.1945 12.7451 19.5187 13.0042 19.8915 13.1832C20.2643 13.3622 20.6754 13.4562 21.0925 13.4578H21.1256C21.7017 13.4563 22.262 13.2772 22.7231 12.9473V13.542C21.9359 13.6989 21.1936 14.0167 20.5472 14.4736H16.7793C16.6332 14.4736 16.4931 14.529 16.3898 14.6277C16.2865 14.7264 16.2284 14.8603 16.2284 14.9999V18.6209C16.2284 18.7605 16.2865 18.8944 16.3898 18.9931C16.4931 19.0918 16.6332 19.1472 16.7793 19.1472H18.3382C18.5586 20.6735 19.7925 22.9788 20.9548 24.8103H15.1653V20.1525C15.1653 19.465 14.8794 18.8057 14.3706 18.3196C13.8619 17.8335 13.1718 17.5604 12.4523 17.5604C11.7327 17.5604 11.0427 17.8335 10.5339 18.3196C10.0251 18.8057 9.73926 19.465 9.73926 20.1525V24.8103H2.18142V12.9473ZM14.0635 20.1525V24.8103H10.841V20.1525C10.841 19.7442 11.0107 19.3526 11.3129 19.0639C11.6151 18.7752 12.0249 18.613 12.4523 18.613C12.8796 18.613 13.2894 18.7752 13.5916 19.0639C13.8938 19.3526 14.0635 19.7442 14.0635 20.1525ZM17.6276 27.3208C17.6386 27.74 17.8204 28.1384 18.1344 28.4314L1.10173 28.4419L1.09071 25.863H18.542C18.2783 26.0179 18.0575 26.2313 17.8983 26.4851C17.7392 26.7389 17.6463 27.0255 17.6276 27.3208ZM23.8138 28.9471C20.7124 28.9471 18.7293 27.984 18.7293 27.3208C18.7293 26.8998 19.6493 26.2051 21.6544 25.8682C22.051 26.4472 22.4146 26.9314 22.679 27.2524C22.8142 27.4164 22.9866 27.549 23.1831 27.6401C23.3797 27.7313 23.5953 27.7787 23.8138 27.7787C24.0323 27.7787 24.2479 27.7313 24.4445 27.6401C24.6411 27.549 24.8134 27.4164 24.9486 27.2524C25.213 26.9314 25.5766 26.4472 25.9732 25.8682C27.9783 26.2051 28.8983 26.8998 28.8983 27.3208C28.8983 27.984 26.9207 28.9471 23.8138 28.9471Z" fill="#5750F1"/>
<path d="M23.8138 16.0262C23.2592 16.0262 22.7171 16.1833 22.256 16.4777C21.7949 16.772 21.4355 17.1904 21.2233 17.6799C21.0111 18.1694 20.9556 18.7081 21.0638 19.2277C21.172 19.7474 21.439 20.2247 21.8311 20.5994C22.2233 20.9741 22.7229 21.2292 23.2668 21.3326C23.8107 21.4359 24.3744 21.3829 24.8868 21.1801C25.3991 20.9774 25.837 20.634 26.1451 20.1934C26.4532 19.7529 26.6177 19.235 26.6177 18.7051C26.6175 17.9947 26.3221 17.3133 25.7963 16.811C25.2705 16.3086 24.5574 16.0263 23.8138 16.0262ZM23.8138 20.3314C23.4771 20.3314 23.148 20.236 22.8681 20.0573C22.5882 19.8786 22.37 19.6246 22.2412 19.3275C22.1124 19.0303 22.0786 18.7033 22.1443 18.3878C22.21 18.0724 22.3721 17.7826 22.6102 17.5551C22.8482 17.3277 23.1515 17.1728 23.4817 17.1101C23.8119 17.0473 24.1541 17.0795 24.4652 17.2026C24.7762 17.3257 25.042 17.5341 25.2291 17.8016C25.4161 18.069 25.5159 18.3835 25.5159 18.7051C25.5145 19.136 25.3347 19.5489 25.0158 19.8535C24.6969 20.1582 24.2648 20.33 23.8138 20.3314Z" fill="#5750F1"/>
<path d="M46.4375 11.1307C46.3466 10.3239 45.9716 9.69886 45.3125 9.25568C44.6534 8.80682 43.8239 8.58239 42.8239 8.58239C42.108 8.58239 41.4886 8.69602 40.9659 8.92329C40.4432 9.14489 40.0369 9.4517 39.7472 9.84375C39.4631 10.2301 39.321 10.6705 39.321 11.1648C39.321 11.5795 39.4176 11.9375 39.6108 12.2386C39.8097 12.5398 40.0682 12.7926 40.3864 12.9972C40.7102 13.196 41.0568 13.3636 41.4261 13.5C41.7955 13.6307 42.1506 13.7386 42.4915 13.8239L44.196 14.267C44.7528 14.4034 45.3239 14.5881 45.9091 14.821C46.4943 15.054 47.0369 15.3608 47.5369 15.7415C48.0369 16.1222 48.4403 16.5938 48.7472 17.1562C49.0597 17.7188 49.2159 18.392 49.2159 19.1761C49.2159 20.1648 48.9602 21.0426 48.4489 21.8097C47.9432 22.5767 47.2074 23.1818 46.2415 23.625C45.2813 24.0682 44.1193 24.2898 42.7557 24.2898C41.4489 24.2898 40.3182 24.0824 39.3636 23.6676C38.4091 23.2528 37.6619 22.6648 37.1222 21.9034C36.5824 21.1364 36.2841 20.2273 36.2273 19.1761H38.8693C38.9205 19.8068 39.125 20.3324 39.483 20.7528C39.8466 21.1676 40.3097 21.4773 40.8722 21.6818C41.4403 21.8807 42.0625 21.9801 42.7386 21.9801C43.483 21.9801 44.1449 21.8636 44.7244 21.6307C45.3097 21.392 45.7699 21.0625 46.1051 20.642C46.4403 20.2159 46.608 19.7187 46.608 19.1506C46.608 18.6335 46.4602 18.2102 46.1648 17.8807C45.875 17.5511 45.4801 17.2784 44.9801 17.0625C44.4858 16.8466 43.9261 16.6562 43.3011 16.4915L41.2386 15.929C39.8409 15.5483 38.733 14.9886 37.9148 14.25C37.1023 13.5114 36.696 12.5341 36.696 11.3182C36.696 10.3125 36.9688 9.43466 37.5142 8.68466C38.0597 7.93466 38.7983 7.35227 39.7301 6.9375C40.6619 6.51705 41.7131 6.30682 42.8835 6.30682C44.0653 6.30682 45.108 6.5142 46.0114 6.92898C46.9205 7.34375 47.6364 7.91477 48.1591 8.64204C48.6818 9.36364 48.9545 10.1932 48.9773 11.1307H46.4375ZM58.2692 10.9091V12.9545H51.1186V10.9091H58.2692ZM53.0362 7.77273H55.5845V20.1562C55.5845 20.6506 55.6584 21.0227 55.8061 21.2727C55.9538 21.517 56.1442 21.6847 56.3771 21.7756C56.6158 21.8608 56.8743 21.9034 57.1527 21.9034C57.3572 21.9034 57.5362 21.8892 57.6896 21.8608C57.843 21.8324 57.9624 21.8097 58.0476 21.7926L58.5078 23.8977C58.3601 23.9545 58.1499 24.0114 57.8771 24.0682C57.6044 24.1307 57.2635 24.1648 56.8544 24.1705C56.1839 24.1818 55.5589 24.0625 54.9794 23.8125C54.3999 23.5625 53.9311 23.1761 53.5732 22.6534C53.2152 22.1307 53.0362 21.4744 53.0362 20.6847V7.77273ZM62.6989 28.9091C62.3182 28.9091 61.9716 28.8778 61.6591 28.8153C61.3466 28.7585 61.1136 28.696 60.9602 28.6278L61.5739 26.5398C62.0398 26.6648 62.4545 26.7188 62.8182 26.7017C63.1818 26.6847 63.5028 26.5483 63.7812 26.2926C64.0653 26.0369 64.3153 25.6193 64.5312 25.0398L64.8466 24.1705L60.0568 10.9091H62.7841L66.0994 21.0682H66.2358L69.5511 10.9091H72.2869L66.892 25.7472C66.642 26.429 66.3239 27.0057 65.9375 27.4773C65.5511 27.9545 65.0909 28.3125 64.5568 28.5511C64.0227 28.7898 63.4034 28.9091 62.6989 28.9091ZM77.2301 6.54545V24H74.6818V6.54545H77.2301ZM86.3004 24.2642C85.0107 24.2642 83.8999 23.9886 82.968 23.4375C82.0419 22.8807 81.326 22.0994 80.8203 21.0938C80.3203 20.0824 80.0703 18.8977 80.0703 17.5398C80.0703 16.1989 80.3203 15.017 80.8203 13.9943C81.326 12.9716 82.0305 12.1733 82.9339 11.5994C83.843 11.0256 84.9055 10.7386 86.1214 10.7386C86.8601 10.7386 87.576 10.8608 88.2692 11.1051C88.9624 11.3494 89.5845 11.733 90.1357 12.2557C90.6868 12.7784 91.1214 13.4574 91.4396 14.2926C91.7578 15.1222 91.9169 16.1307 91.9169 17.3182V18.2216H81.5107V16.3125H89.4197C89.4197 15.642 89.2834 15.0483 89.0107 14.5312C88.7379 14.0085 88.3544 13.5966 87.8601 13.2955C87.3714 12.9943 86.7976 12.8438 86.1385 12.8438C85.4226 12.8438 84.7976 13.0199 84.2635 13.3722C83.7351 13.7187 83.326 14.1733 83.0362 14.7358C82.7521 15.2926 82.6101 15.8977 82.6101 16.5511V18.0426C82.6101 18.9176 82.7635 19.6619 83.0703 20.2756C83.3828 20.8892 83.8175 21.358 84.3743 21.6818C84.9311 22 85.5817 22.1591 86.326 22.1591C86.8089 22.1591 87.2493 22.0909 87.647 21.9545C88.0447 21.8125 88.3885 21.6023 88.6783 21.3239C88.968 21.0455 89.1896 20.7017 89.343 20.2926L91.755 20.7273C91.5618 21.4375 91.2152 22.0597 90.7152 22.5938C90.2209 23.1222 89.5987 23.5341 88.8487 23.8295C88.1044 24.1193 87.255 24.2642 86.3004 24.2642ZM97.2926 16.2273V24H94.7443V6.54545H97.2585V13.0398H97.4205C97.7273 12.3352 98.196 11.7756 98.8267 11.3608C99.4574 10.946 100.281 10.7386 101.298 10.7386C102.196 10.7386 102.98 10.9233 103.651 11.2926C104.327 11.6619 104.849 12.2131 105.219 12.946C105.594 13.6733 105.781 14.5824 105.781 15.6733V24H103.233V15.9801C103.233 15.0199 102.986 14.2756 102.491 13.7472C101.997 13.2131 101.31 12.946 100.429 12.946C99.8267 12.946 99.2869 13.0739 98.8097 13.3295C98.3381 13.5852 97.9659 13.9602 97.6932 14.4545C97.4261 14.9432 97.2926 15.5341 97.2926 16.2273ZM117.474 18.571V10.9091H120.031V24H117.526V21.733H117.389C117.088 22.4318 116.605 23.0142 115.94 23.4801C115.281 23.9403 114.46 24.1705 113.477 24.1705C112.636 24.1705 111.892 23.9858 111.244 23.6165C110.602 23.2415 110.097 22.6875 109.727 21.9545C109.364 21.2216 109.182 20.3153 109.182 19.2358V10.9091H111.73V18.929C111.73 19.821 111.977 20.5312 112.472 21.0597C112.966 21.5881 113.608 21.8523 114.398 21.8523C114.875 21.8523 115.349 21.733 115.821 21.4943C116.298 21.2557 116.693 20.8949 117.006 20.4119C117.324 19.929 117.48 19.3153 117.474 18.571ZM126.004 16.2273V24H123.455V10.9091H125.901V13.0398H126.063C126.364 12.3466 126.836 11.7898 127.478 11.3693C128.126 10.9489 128.941 10.7386 129.924 10.7386C130.816 10.7386 131.597 10.9261 132.268 11.3011C132.938 11.6705 133.458 12.2216 133.827 12.9545C134.197 13.6875 134.381 14.5937 134.381 15.6733V24H131.833V15.9801C131.833 15.0312 131.586 14.2898 131.092 13.7557C130.597 13.2159 129.918 12.946 129.055 12.946C128.464 12.946 127.938 13.0739 127.478 13.3295C127.023 13.5852 126.663 13.9602 126.396 14.4545C126.134 14.9432 126.004 15.5341 126.004 16.2273ZM143.91 10.9091V12.9545H136.759V10.9091H143.91ZM138.677 7.77273H141.225V20.1562C141.225 20.6506 141.299 21.0227 141.447 21.2727C141.594 21.517 141.785 21.6847 142.018 21.7756C142.256 21.8608 142.515 21.9034 142.793 21.9034C142.998 21.9034 143.177 21.8892 143.33 21.8608C143.484 21.8324 143.603 21.8097 143.688 21.7926L144.148 23.8977C144.001 23.9545 143.79 24.0114 143.518 24.0682C143.245 24.1307 142.904 24.1648 142.495 24.1705C141.825 24.1818 141.2 24.0625 140.62 23.8125C140.04 23.5625 139.572 23.1761 139.214 22.6534C138.856 22.1307 138.677 21.4744 138.677 20.6847V7.77273Z" fill="white"/>
</svg>
